<svg width="30" height="30" viewBox="0 0 30 30" version="1.1" xmlns="http://www.w3.org/2000/svg" xmlns:xlink="http://www.w3.org/1999/xlink">
<title>Google Plus</title>
<desc>Created using Figma</desc>
<g id="Canvas" transform="translate(-2458 -1405)">
<g id="Google Plus" opacity="0.5">
<use xlink:href="#path0_fill" transform="translate(2458 1405)" fill="#4D4F56"/>
</g>
</g>
<defs>
<path id="path0_fill" fill-rule="evenodd" d="M 15 30C 23.2843 30 30 23.2843 30 15C 30 6.71573 23.2843 0 15 0C 6.71573 0 0 6.71573 0 15C 0 23.2843 6.71573 30 15 30ZM 23.9529 14.5438L 21.4417 14.5438L 21.4417 11.9105C 21.4417 11.7095 21.2863 11.5461 21.0951 11.5461L 20.3801 11.5461C 20.1875 11.5461 20.0321 11.7095 20.0321 11.9105L 20.0321 14.5438L 17.5209 14.5438C 17.3297 14.5438 17.1736 14.7076 17.1736 14.9089L 17.1736 15.6589C 17.1736 15.8602 17.3297 16.0232 17.5209 16.0232L 20.0321 16.0232L 20.0321 18.658C 20.0321 18.8593 20.1875 19.0223 20.3801 19.0223L 21.0951 19.0223C 21.2863 19.0223 21.4417 18.8593 21.4417 18.658L 21.4417 16.0229L 23.9529 16.0229C 24.1441 16.0229 24.3002 15.8598 24.3002 15.6586L 24.3002 14.9085C 24.3002 14.7072 24.1441 14.5438 23.9529 14.5438ZM 15.5141 16.8533C 14.9859 16.4609 14.5059 15.8855 14.4975 15.7087C 14.4975 15.3869 14.5249 15.2329 15.2132 14.6705C 16.1031 13.9397 16.5932 12.9789 16.5932 11.9638C 16.5932 11.0434 16.3251 10.2256 15.8688 9.65128L 16.2228 9.65128C 16.296 9.65128 16.3678 9.62744 16.4263 9.58255L 17.4142 8.83181C 17.5368 8.73959 17.5883 8.57514 17.5415 8.42471C 17.4944 8.27463 17.362 8.17224 17.2112 8.17224L 12.7933 8.17224C 12.3099 8.17224 11.8189 8.26166 11.3368 8.43558C 9.72692 9.01801 8.60105 10.4571 8.60105 11.9344C 8.60105 14.0274 10.1468 15.6137 12.213 15.6635C 12.1726 15.8294 12.1522 15.9928 12.1522 16.153C 12.1522 16.4756 12.2301 16.781 12.3905 17.0763C 12.3718 17.0763 12.3537 17.0763 12.3337 17.0763C 10.3641 17.0763 8.58634 18.09 7.91142 19.5985C 7.73558 19.9909 7.646 20.3875 7.646 20.7791C 7.646 21.1599 7.73926 21.5264 7.92212 21.8707C 8.34632 22.6667 9.25725 23.2842 10.4884 23.6103C 11.1239 23.7786 11.8069 23.8645 12.5159 23.8645C 13.153 23.8645 13.7604 23.7782 14.322 23.6078C 16.073 23.0745 17.2052 21.7224 17.2052 20.1616C 17.2049 18.664 16.7459 17.7674 15.5141 16.8533ZM 9.93457 20.2816C 9.93457 19.1921 11.254 18.2366 12.7579 18.2366L 12.7984 18.2366C 13.1257 18.2408 13.4449 18.2913 13.7458 18.3881C 13.8491 18.4627 13.9487 18.5339 14.0443 18.6023C 14.7409 19.1002 15.2012 19.4288 15.3293 19.9562C 15.3594 20.0891 15.3744 20.2219 15.3744 20.3506C 15.3744 21.7073 14.41 22.3949 12.5069 22.3949C 11.0645 22.3949 9.93457 21.4671 9.93457 20.2816ZM 11.3032 9.9875C 11.5382 9.70593 11.8461 9.55725 12.1918 9.55725L 12.2309 9.55795C 13.2073 9.58811 14.1416 10.7295 14.3135 12.1023C 14.4101 12.8709 14.2469 13.5936 13.8786 14.034C 13.6429 14.3163 13.3394 14.4649 12.9797 14.4649C 12.9797 14.4649 12.9797 14.4649 12.979 14.4649L 12.9633 14.4649C 12.0069 14.4341 11.0525 13.2492 10.8817 11.8782C 10.7858 11.1117 10.9395 10.4227 11.3032 9.9875Z"/>
</defs>
</svg>
