<svg width="89" height="50" viewBox="0 0 89 50" version="1.1" xmlns="http://www.w3.org/2000/svg" xmlns:xlink="http://www.w3.org/1999/xlink">
<title>Icon</title>
<desc>Created using Figma</desc>
<g id="Canvas" transform="translate(-1288 -21)">
<g id="Icon">
<g id="Left">
<g id="Outer">
<use xlink:href="#path0_fill" transform="translate(1288 21)" fill="#FFFFFF"/>
</g>
<g id="Inner">
<use xlink:href="#path1_fill" transform="translate(1304.89 38.0436)" fill="#FFFFFF"/>
</g>
</g>
<g id="Axle">
<use xlink:href="#path2_fill" transform="translate(1311 44)" fill="#FFFFFF"/>
</g>
<g id="Right">
<g id="Outer">
<use xlink:href="#path3_fill" transform="translate(1327 21)" fill="#FFFFFF"/>
</g>
<g id="Inner">
<use xlink:href="#path4_fill" transform="translate(1344.24 38.2414)" fill="#FFFFFF"/>
</g>
</g>
</g>
</g>
<defs>
<path id="path0_fill" fill-rule="evenodd" d="M 44.9555 10.5632L 42.9283 12.0108C 42.2011 10.9741 41.3833 9.99544 40.479 9.08302C 31.787 0.313325 17.6945 0.313325 9.00253 9.08302C 0.310548 17.8527 0.310548 32.0712 9.00253 40.8409C 17.6945 49.6106 31.787 49.6106 40.479 40.8409C 41.392 39.9197 42.2168 38.931 42.9492 37.8834L 44.9787 39.3276C 44.1724 40.4809 43.2579 41.5808 42.2351 42.6127C 32.5733 52.361 16.9083 52.361 7.2464 42.6127C -2.41547 32.8645 -2.41547 17.0594 7.2464 7.31118C 16.9083 -2.43706 32.5733 -2.43706 42.2351 7.31118C 43.2481 8.33325 44.1549 9.4219 44.9555 10.5632Z"/>
<path id="path1_fill" d="M 7.75283 15.6443C 3.47106 15.6443 0 12.1422 0 7.82214C 0 3.50209 3.47106 0 7.75283 0C 12.0346 0 15.5057 3.50209 15.5057 7.82214C 15.5057 12.1422 12.0346 15.6443 7.75283 15.6443Z"/>
<path id="path2_fill" fill-rule="evenodd" d="M 0 2C 0 0.895431 0.895431 0 2 0L 16 0C 17.1046 0 18 0.895431 18 2C 18 3.10457 17.1046 4 16 4L 2 4C 0.895431 4 0 3.10457 0 2Z"/>
<path id="path3_fill" fill-rule="evenodd" d="M 0 24.9619C 0 38.748 11.1758 49.9239 24.9619 49.9239C 38.748 49.9239 49.9238 38.748 49.9238 24.9619C 49.9238 11.1758 38.748 0 24.9619 0C 11.1758 0 0 11.1758 0 24.9619ZM 47.4181 24.9619C 47.4181 37.3642 37.3641 47.4181 24.9619 47.4181C 12.5597 47.4181 2.50574 37.3642 2.50574 24.9619C 2.50574 12.5597 12.5597 2.50575 24.9619 2.50575C 37.3641 2.50575 47.4181 12.5597 47.4181 24.9619Z"/>
<path id="path4_fill" fill-rule="evenodd" d="M 0 7.82214C 0 12.1422 3.50208 15.6443 7.82214 15.6443C 12.1422 15.6443 15.6443 12.1422 15.6443 7.82214C 15.6443 3.50209 12.1422 0 7.82214 0C 3.50208 0 0 3.50209 0 7.82214ZM 13.1379 7.82214C 13.1379 10.7579 10.7579 13.1379 7.82214 13.1379C 4.88635 13.1379 2.50647 10.7579 2.50647 7.82214C 2.50647 4.88634 4.88635 2.50641 7.82214 2.50641C 10.7579 2.50641 13.1379 4.88634 13.1379 7.82214Z"/>
</defs>
</svg>
