<svg width="30" height="30" viewBox="0 0 30 30" version="1.1" xmlns="http://www.w3.org/2000/svg" xmlns:xlink="http://www.w3.org/1999/xlink">
<title>Twitter</title>
<desc>Created using Figma</desc>
<g id="Canvas" transform="translate(-2415 -1405)">
<g id="Twitter" opacity="0.5">
<use xlink:href="#path0_fill" transform="translate(2415 1405)" fill="#4D4F56"/>
</g>
</g>
<defs>
<path id="path0_fill" fill-rule="evenodd" d="M 15 30C 23.2843 30 30 23.2843 30 15C 30 6.71573 23.2843 0 15 0C 6.71573 0 0 6.71573 0 15C 0 23.2843 6.71573 30 15 30ZM 14.9112 13.444L 14.9422 13.9631L 14.4262 13.8995C 12.5479 13.6559 10.907 12.8297 9.51378 11.442L 8.83265 10.7535L 8.65721 11.262C 8.28568 12.3954 8.52304 13.5923 9.29706 14.3973C 9.70987 14.8422 9.61698 14.9058 8.90489 14.641C 8.65721 14.5562 8.44048 14.4927 8.41984 14.5245C 8.3476 14.5986 8.59529 15.5625 8.79137 15.9439C 9.05969 16.4735 9.60666 16.9925 10.2052 17.2997L 10.7109 17.5433L 10.1124 17.5539C 9.53442 17.5539 9.51378 17.5645 9.5757 17.787C 9.78211 18.4755 10.5974 19.2064 11.5056 19.5241L 12.1454 19.7466L 11.5881 20.0855C 10.7625 20.5728 9.79243 20.8482 8.82233 20.8694C 8.35792 20.88 7.97607 20.9223 7.97607 20.9541C 7.97607 21.06 9.23514 21.6532 9.96787 21.8863C 12.1661 22.5748 14.7771 22.2782 16.7379 21.1024C 18.1311 20.2656 19.5244 18.6026 20.1745 16.9925C 20.5254 16.1345 20.8763 14.5668 20.8763 13.8148C 20.8763 13.3275 20.9073 13.2639 21.4852 12.6814C 21.8258 12.3424 22.1457 11.9717 22.2076 11.8657C 22.3108 11.6645 22.3005 11.6645 21.7742 11.8445C 20.8969 12.1623 20.7731 12.12 21.2066 11.6433C 21.5265 11.3043 21.9083 10.69 21.9083 10.5099C 21.9083 10.4781 21.7535 10.5311 21.5781 10.6264C 21.3923 10.7323 20.9795 10.8912 20.6699 10.9866L 20.1126 11.1666L 19.6069 10.8171C 19.3283 10.6264 18.9361 10.4146 18.7297 10.351C 18.2034 10.2027 17.3984 10.2239 16.9237 10.3934C 15.6337 10.87 14.8184 12.0988 14.9112 13.444Z"/>
</defs>
</svg>
